<svg id="Layer_1" enable-background="new 0 0 497 497" height="512" viewBox="0 0 497 497" width="512" xmlns="http://www.w3.org/2000/svg"><g><g><path d="m420.974 85.618c-11.522-8.681-18.972-22.49-18.972-38.043 0-26.275 21.266-47.575 47.499-47.575s47.499 21.3 47.499 47.575c0 15.553-7.451 29.362-18.973 38.043z" fill="#5d76cf"/><path d="m478.027 85.618c11.522-8.681 18.973-22.49 18.973-38.043 0-26.275-21.266-47.575-47.499-47.575-7.147 0-13.92 1.591-20 4.423 16.237 7.562 27.499 24.036 27.499 43.152 0 13.68-5.768 26.007-14.999 34.683l-3.666 3.36z" fill="#4d69cf"/></g><g><path d="m286.974 85.618c-11.522-8.681-18.972-22.49-18.972-38.043-.001-26.275 21.265-47.575 47.498-47.575s47.499 21.3 47.499 47.575c0 15.553-7.451 29.362-18.973 38.043z" fill="#5d76cf"/><path d="m344.027 85.618c11.522-8.681 18.973-22.49 18.973-38.043-.001-26.275-21.267-47.575-47.5-47.575-7.147 0-13.92 1.591-20 4.423 16.237 7.562 27.499 24.036 27.499 43.152 0 13.68-5.768 26.007-14.999 34.683l-3.666 3.36z" fill="#4d69cf"/></g><g><path d="m152.973 85.618c-11.522-8.681-18.972-22.49-18.972-38.043 0-26.275 21.266-47.575 47.499-47.575s47.499 21.3 47.499 47.575c0 15.553-7.451 29.362-18.973 38.043z" fill="#5d76cf"/><path d="m210.026 85.618c11.522-8.681 18.973-22.49 18.973-38.043 0-26.275-21.266-47.575-47.499-47.575-7.147 0-13.92 1.591-20 4.423 16.237 7.562 27.499 24.036 27.499 43.152 0 13.68-5.768 26.007-14.999 34.683l-3.666 3.36z" fill="#4d69cf"/></g><g><g fill="#dde6ed"><path d="m382.503 341.11-126.503-.031v-85.079h89.002c4.143 0 7.5-3.358 7.5-7.5s-3.357-7.5-7.5-7.5h-193.004c-4.143 0-7.5 3.358-7.5 7.5s3.357 7.5 7.5 7.5h89.002v85.075l-126.499-.031c-.001 0-.001 0-.002 0-1.988 0-3.896.79-5.303 2.196s-2.197 3.314-2.197 5.304v63.256c0 4.142 3.357 7.5 7.5 7.5s7.5-3.358 7.5-7.5v-55.754l119.001.029v55.774c0 4.142 3.357 7.5 7.5 7.5s7.5-3.358 7.5-7.5v-55.771l119.001.029v55.758c0 4.142 3.357 7.5 7.5 7.5s7.5-3.358 7.5-7.5v-63.255c0-4.142-3.356-7.499-7.498-7.5z"/><path d="m449.501 77.65c-4.143 0-7.5 3.358-7.5 7.5v55.756h-119.001v-55.756c0-4.142-3.357-7.5-7.5-7.5s-7.5 3.358-7.5 7.5v63.256c0 4.142 3.357 7.5 7.5 7.5h59.501v55.019c0 4.142 3.357 7.5 7.5 7.5s7.5-3.358 7.5-7.5v-55.019h59.5c4.143 0 7.5-3.358 7.5-7.5v-63.256c0-4.142-3.357-7.5-7.5-7.5z"/><path d="m106.999 210.925c0 4.142 3.357 7.5 7.5 7.5s7.5-3.358 7.5-7.5v-55.019h59.501c4.143 0 7.5-3.358 7.5-7.5v-63.256c0-4.142-3.357-7.5-7.5-7.5s-7.5 3.358-7.5 7.5v55.756h-119.001v-55.756c0-4.142-3.357-7.5-7.5-7.5s-7.5 3.358-7.5 7.5v63.256c0 4.142 3.357 7.5 7.5 7.5h59.5z"/></g><g><g><path d="m353.974 487.468c-11.522-8.681-18.972-22.49-18.972-38.043 0-26.275 21.266-47.575 47.499-47.575s47.499 21.3 47.499 47.575c0 15.553-7.451 29.362-18.973 38.043z" fill="#5d76cf"/><path d="m411.027 487.468c11.522-8.681 18.973-22.49 18.973-38.043 0-26.275-21.266-47.575-47.499-47.575-7.147 0-13.92 1.591-20 4.423 16.236 7.562 27.499 24.035 27.499 43.152 0 13.681-5.768 26.007-14.999 34.683l-3.666 3.36z" fill="#4d69cf"/></g><g><path d="m219.973 487.468c-11.522-8.681-18.972-22.49-18.972-38.043 0-26.275 21.266-47.575 47.499-47.575s47.499 21.3 47.499 47.575c0 15.553-7.451 29.362-18.973 38.043z" fill="#5d76cf"/><path d="m277.027 487.468c11.522-8.681 18.973-22.49 18.973-38.043 0-26.275-21.266-47.575-47.499-47.575-7.147 0-13.92 1.591-20 4.423 16.237 7.563 27.499 24.036 27.499 43.152 0 13.681-5.768 26.007-14.999 34.683l-3.666 3.36z" fill="#4d69cf"/></g><g><path d="m85.973 487.468c-11.522-8.681-18.973-22.49-18.973-38.043 0-26.275 21.266-47.575 47.499-47.575s47.499 21.3 47.499 47.575c0 15.553-7.451 29.362-18.973 38.043z" fill="#5d76cf"/><path d="m143.026 487.468c11.522-8.681 18.973-22.49 18.973-38.043 0-26.275-21.266-47.575-47.499-47.575-7.147 0-13.92 1.591-20 4.423 16.237 7.563 27.499 24.036 27.499 43.152 0 13.681-5.768 26.007-14.999 34.683l-3.666 3.36z" fill="#4d69cf"/></g><g><path d="m353.974 286.537c-11.522-8.681-18.972-22.49-18.972-38.043 0-26.275 21.266-47.575 47.499-47.575s47.499 21.3 47.499 47.575c0 15.553-7.451 29.362-18.973 38.043z" fill="#5d76cf"/><path d="m411.027 286.537c11.522-8.681 18.973-22.49 18.973-38.043 0-26.275-21.266-47.575-47.499-47.575-7.147 0-13.92 1.591-20 4.423 16.236 7.562 27.499 24.035 27.499 43.152 0 13.68-5.768 26.007-14.999 34.683l-3.666 3.36z" fill="#4d69cf"/></g><g><path d="m85.973 286.537c-11.522-8.681-18.973-22.491-18.973-38.043 0-26.275 21.266-47.575 47.499-47.575s47.499 21.3 47.499 47.575c0 15.553-7.451 29.362-18.973 38.043z" fill="#5d76cf"/><path d="m143.026 286.537c11.522-8.681 18.973-22.49 18.973-38.043 0-26.275-21.266-47.575-47.499-47.575-7.147 0-13.92 1.591-20 4.423 16.237 7.563 27.499 24.036 27.499 43.152 0 13.68-5.768 26.007-14.999 34.683l-3.666 3.36z" fill="#4d69cf"/></g><g><g><ellipse cx="114.499" cy="241.797" fill="#ffdbb5" rx="17.917" ry="17.946"/><g><path d="m114.499 259.841c-15.141 0-27.526 11.788-28.525 26.7 7.943 5.985 17.819 9.534 28.525 9.534 10.705 0 20.582-3.549 28.525-9.534-.999-14.912-13.383-26.7-28.525-26.7z" fill="#a6d4ff"/></g></g></g><g><g><ellipse cx="382.501" cy="241.797" fill="#ffdbb5" rx="17.917" ry="17.946"/><g><path d="m382.5 259.841c-15.141 0-27.526 11.788-28.525 26.7 7.943 5.985 17.819 9.534 28.525 9.534 10.705 0 20.582-3.549 28.525-9.534-.998-14.912-13.383-26.7-28.525-26.7z" fill="#ff428e"/></g></g></g><g><g><g><path d="m18.972 85.618c-11.521-8.681-18.972-22.49-18.972-38.043 0-26.275 21.266-47.575 47.499-47.575s47.499 21.3 47.499 47.575c0 15.553-7.451 29.362-18.973 38.043z" fill="#5d76cf"/><path d="m76.026 85.618c11.522-8.681 18.973-22.49 18.973-38.043-.001-26.275-21.267-47.575-47.5-47.575-7.147 0-13.92 1.591-20 4.423 16.237 7.562 27.499 24.036 27.499 43.152 0 13.68-5.768 26.007-14.999 34.683l-3.666 3.36z" fill="#4d69cf"/></g><g><ellipse cx="47.499" cy="40.872" fill="#ffdbb5" rx="17.917" ry="17.946"/><g><path d="m47.499 58.916c-15.141 0-27.526 11.788-28.525 26.7 7.943 5.985 17.819 9.534 28.525 9.534 10.705 0 20.582-3.549 28.525-9.534-.999-14.912-13.384-26.7-28.525-26.7z" fill="#a6d4ff"/></g></g></g><g><g><ellipse cx="181.5" cy="40.872" fill="#ffdbb5" rx="17.917" ry="17.946"/><g><path d="m181.5 58.916c-15.141 0-27.526 11.788-28.525 26.7 7.943 5.985 17.819 9.534 28.525 9.534 10.705 0 20.582-3.549 28.525-9.534-.999-14.912-13.384-26.7-28.525-26.7z" fill="#ff428e"/></g></g></g></g><g><g><g><ellipse cx="315.5" cy="40.872" fill="#ffdbb5" rx="17.917" ry="17.946"/><g><path d="m315.5 58.916c-15.141 0-27.526 11.788-28.525 26.7 7.943 5.985 17.819 9.534 28.525 9.534 10.705 0 20.582-3.549 28.525-9.534-.999-14.912-13.384-26.7-28.525-26.7z" fill="#ffd52b"/></g></g></g><g><g><ellipse cx="449.501" cy="40.872" fill="#ffdbb5" rx="17.917" ry="17.946"/><g><path d="m449.501 58.916c-15.141 0-27.526 11.788-28.525 26.7 7.943 5.985 17.819 9.534 28.525 9.534 10.705 0 20.582-3.549 28.525-9.534-.999-14.912-13.384-26.7-28.525-26.7z" fill="#ffbfed"/></g></g></g></g><g><g><g><ellipse cx="114.499" cy="442.722" fill="#ffdbb5" rx="17.917" ry="17.946"/><g><path d="m114.499 460.766c-15.141 0-27.526 11.788-28.525 26.7 7.943 5.985 17.819 9.534 28.525 9.534 10.705 0 20.582-3.549 28.525-9.534-.999-14.912-13.383-26.7-28.525-26.7z" fill="#ffd52b"/></g></g></g><g><g><ellipse cx="248.5" cy="442.722" fill="#ffdbb5" rx="17.917" ry="17.946"/><g><path d="m248.5 460.766c-15.141 0-27.526 11.788-28.525 26.7 7.943 5.985 17.819 9.534 28.525 9.534 10.705 0 20.582-3.549 28.525-9.534-.999-14.912-13.384-26.7-28.525-26.7z" fill="#ffbfed"/></g></g></g><g><g><ellipse cx="382.501" cy="442.722" fill="#ffdbb5" rx="17.917" ry="17.946"/><g><path d="m382.501 460.766c-15.141 0-27.526 11.788-28.525 26.7 7.943 5.985 17.819 9.534 28.525 9.534 10.705 0 20.582-3.549 28.525-9.534-.999-14.912-13.384-26.7-28.525-26.7z" fill="#2ae88f"/></g></g></g></g></g></g></g></svg>